<?xml version="1.0"?>
<svg xmlns="http://www.w3.org/2000/svg" xmlns:lc="https://librecad.org" xmlns:xlink="http://www.w3.org/1999/xlink" width="6.37679493in" height="7.7217688in" viewBox="0 0 6.37679493 7.7217688">
    <g lc:layername="!VSCHEMES" lc:is_locked="false" lc:is_construction="false" fill="none" stroke="black" stroke-width="0.1">
        <line x1="2.5" y1="0" x2="3.5" y2="1"/>
        <line x1="2.5" y1="1" x2="3.5" y2="0"/>
        <line x1="0.5" y1="1" x2="3" y2="5.5"/>
        <line x1="4.99999999" y1="0" x2="5.99999999" y2="1"/>
        <line x1="4.99999999" y1="1" x2="5.99999999" y2="0"/>
        <line x1="2.99999999" y1="1" x2="5.49999999" y2="5.5"/>
        <line x1="1.36148542" y1="2.55067375" x2="0.66215955" y2="2.93918862"/>
        <line x1="0.66215955" y1="2.93918862" x2="1.43918829" y2="4.33784036"/>
        <line x1="1.43918829" y1="4.33784036" x2="2.13851416" y2="3.94932549"/>
        <path d="M1.50243084,2.8043755 L4.00243083,2.8043755 "/>
        <path d="M1.99756916,3.6956245 L4.49756916,3.6956245 "/>
        <line x1="1.87679493" y1="7.06509761" x2="0" y2="7.06509761"/>
        <line x1="0" y1="7.06509761" x2="0" y2="3.63851449"/>
        <line x1="0" y1="3.63851449" x2="1.05067392" y2="3.63851449"/>
        <path d="M6.37679493,7.06509761 C6.37679493,6.70275696 5.36830893,6.40842642 4.12679493,6.40842642 C2.88528093,6.40842642 1.87679493,6.70275696 1.87679493,7.06509761 C1.87679493,7.42743827 2.88528093,7.7217688 4.12679493,7.7217688 C5.36830893,7.7217688 6.37679493,7.42743827 6.37679493,7.06509761 Z "/>
    </g>
    <g lc:layername="0" lc:is_locked="false" lc:is_construction="false" fill="none" stroke="black" stroke-width="0.1"/>
    <g lc:layername="SYS_METRIC" lc:is_locked="false" lc:is_construction="false" fill="none" stroke="black" stroke-width="0.1"/>
</svg>
